<svg width="42" height="38" viewBox="0 0 42 38" fill="none" xmlns="http://www.w3.org/2000/svg">
<path d="M3.75561 8.68337L8.53725 9.09029L8.16486 18.6482L0.439733 17.8807L0.33674 12.4797H1.2281C1.18339 13.4612 1.23924 14.4454 1.39448 15.4114H1.4341C1.4876 14.4352 1.4876 13.456 1.4341 12.4797L3.6526 12.4474L3.71202 16.179L4.95597 16.3131L5.32836 11.0555H0.574438L0.0237694 1.70102L8.34314 1.12763L8.24013 7.44874L6.25933 7.41175C6.31977 6.48367 6.2718 5.5503 6.11672 4.63731H6.07314C5.97915 5.55887 5.97915 6.49019 6.07314 7.41175H4.88465L4.94804 3.74486L3.49809 3.84659L3.75561 8.68337ZM2.65823 8.82672H2.69785C2.76331 7.09209 2.68104 5.35416 2.45223 3.6385H2.42847C2.247 5.37039 2.32475 7.1259 2.65823 8.82672ZM4.06461 10.3527C3.62883 10.3527 3.17324 10.3989 2.71766 10.3989H2.51166V10.4313C3.006 10.4997 3.50341 10.5337 4.00122 10.533C4.29042 10.533 4.58357 10.533 4.87277 10.5006L5.47494 10.4498C5.76414 10.4498 6.05333 10.3989 6.36234 10.3989C6.47312 10.3897 6.58433 10.3897 6.69511 10.3989V10.3665C6.28273 10.3037 5.867 10.2759 5.45117 10.2833C4.97578 10.3018 4.5202 10.3203 4.06461 10.3527ZM4.99558 17.0807C4.21409 16.8846 3.41789 16.7792 2.61862 16.7663C2.8682 16.7986 3.11778 16.8495 3.3634 16.8819C3.90539 16.9809 4.45157 17.0457 4.99954 17.0761L4.99558 17.0807ZM2.69785 3.06512L3.13363 3.00038C4.23938 2.81245 5.35278 2.69206 6.4693 2.6397C6.07314 2.59346 5.70074 2.57497 5.39174 2.57497C5.08273 2.57497 4.89258 2.57497 4.66677 2.60733C4.00159 2.71334 3.34364 2.87404 2.69785 3.08824V3.06512ZM6.36234 11.9064H6.34253C5.82163 13.5734 5.71452 15.3781 6.03353 17.1131H6.05333C6.11672 16.2622 6.15634 15.3929 6.21972 14.5559C6.28311 13.719 6.30291 12.7988 6.36234 11.9064ZM7.23389 14.0196H7.2735C7.35029 13.8191 7.38688 13.6009 7.38047 13.3814H7.33689C7.29261 13.5918 7.25823 13.8048 7.23389 14.0196Z" fill="#3F3F3F"/>
<path d="M11.251 4.01305L9.801 3.96681L9.88421 1.34496L16.7813 1.69177L16.718 3.03275C16.3218 3.00038 15.89 2.96801 15.3908 2.96801C14.7094 2.96801 14.0043 3.01425 13.3229 3.06512C13.0733 3.06512 12.8475 3.09749 12.5979 3.09749V3.12985C12.9703 3.12985 13.3625 3.16222 13.8181 3.16222C14.2737 3.16222 14.6104 3.16222 15.0066 3.16222C15.4027 3.16222 15.7989 3.16222 16.2307 3.16222H16.7061L16.6665 4.17952L14.5747 4.12865L14.6777 15.638H16.0841L16.0009 18.0934L9.78912 18.1581L9.87231 15.5224L11.3421 15.5547L11.251 4.01305ZM10.3398 16.6691V16.7015C10.6092 16.7015 10.8984 16.7339 11.1678 16.7339C11.7294 16.7307 12.2903 16.6874 12.8475 16.6044V16.5674C12.0155 16.6044 11.1678 16.6368 10.3239 16.6876L10.3398 16.6691ZM12.7405 6.95859C12.7267 7.36723 12.7346 7.77648 12.7643 8.18397C12.7643 8.82672 12.7643 9.47871 12.7405 10.103H12.7841C12.9955 8.57478 13.0712 7.02521 13.0099 5.47888C13.0099 4.85463 13.0099 4.23501 13.0337 3.62925H12.9901C12.8382 4.74297 12.7548 5.86796 12.7405 6.99558V6.95859ZM13.6319 16.4379C13.6319 16.5489 13.6953 16.7154 13.7151 16.8125H13.7349C13.7349 16.8125 13.7151 16.5166 13.6953 16.4194C13.587 15.3978 13.5936 14.364 13.7151 13.3444C13.7349 13.0161 13.7586 12.7063 13.7785 12.378C13.8511 10.9178 13.7887 9.45279 13.5923 8.00825H13.5487L13.5685 8.54465C13.5685 9.80702 13.5923 11.1018 13.5289 12.3919V12.7063C13.4259 13.9687 13.3229 15.2449 13.6319 16.4981V16.4379Z" fill="#3F3F3F"/>
<path d="M24.9819 17.52L17.6291 18.209L17.8748 1.98771H19.9903C20.0448 3.21513 20.1772 4.43615 20.3864 5.64073H20.43C20.4498 4.42922 20.3666 3.19922 20.2834 2.00621H21.1946L21.0084 15.2311L24.7164 14.69L24.8194 15.7536C24.4867 15.7536 24.1539 15.8044 23.8449 15.8553H23.7023L22.7079 16.0033C22.0859 16.0865 21.464 16.1836 20.842 16.2668V16.2992C21.7569 16.2907 22.6702 16.2088 23.5755 16.0541C23.7617 16.0218 23.9281 15.9894 24.1143 15.9709C24.3005 15.9524 24.5699 15.8738 24.7996 15.8414L24.9819 17.52ZM19.6575 5.83494C19.6179 5.45576 19.5743 5.06272 19.5545 4.68817C19.5545 4.68817 19.5347 4.48934 19.5347 4.45697H19.4911V4.81764C19.4713 5.71934 19.4713 6.89848 19.5347 8.09149C19.5577 8.30321 19.5709 8.51622 19.5743 8.72961C19.6724 9.73022 19.7068 10.7379 19.6773 11.7445H19.7209C19.9704 9.77927 19.8041 7.76318 19.6377 5.83494H19.6575Z" fill="#3F3F3F"/>
<path d="M33.5548 17.52L26.202 18.209L26.4516 1.98771H28.5632C28.6177 3.21513 28.7501 4.43615 28.9593 5.64073H29.0029C29.0227 4.42922 28.9395 3.19922 28.8563 2.00621H29.7675L29.5813 15.2311L33.2894 14.69L33.3924 15.7536C33.0596 15.7536 32.7308 15.8044 32.4178 15.8553H32.2752L31.2808 16.0033C30.6588 16.0865 30.0369 16.1836 29.4149 16.2668L29.4387 16.2992C30.3536 16.2903 31.2669 16.2084 32.1722 16.0541C32.3584 16.0218 32.5208 15.9894 32.711 15.9709C32.9011 15.9524 33.1626 15.8738 33.3924 15.8414L33.5548 17.52ZM28.2304 5.83494C28.1908 5.45576 28.1472 5.06272 28.1274 4.68817C28.1274 4.68817 28.1076 4.48934 28.1076 4.45697H28.068V4.81764C28.0442 5.71934 28.0442 6.89848 28.1076 8.09149C28.1306 8.30321 28.1438 8.51622 28.1472 8.72961C28.2447 9.73028 28.2804 10.7378 28.2542 11.7445H28.2938C28.5473 9.77927 28.3968 7.76318 28.2304 5.83494Z" fill="#3F3F3F"/>
<path d="M38.0552 1.28485H41.3908C41.3908 1.41432 41.268 6.91234 41.2245 8.60013L41.2046 9.23826L38.3048 10.9399L38.3879 17.1593H37.4966C37.7026 15.2449 37.7858 13.2288 37.2708 11.3006H37.2629C37.3484 12.4754 37.3828 13.6545 37.3659 14.8334C37.3392 15.604 37.3458 16.3756 37.3857 17.1454H35.0642L34.981 10.6162L32.0415 9.229L32.3742 0.905671L34.2798 0.93804C34.2164 1.5253 34.1768 2.09868 34.1332 2.6582C34.1332 2.91714 34.0936 3.16222 34.0698 3.42579L34.05 3.68937C33.9351 4.81984 33.9351 5.96221 34.05 7.09268H34.0896C34.1112 6.35183 34.1747 5.61344 34.2798 4.88238C34.3392 4.35986 34.4224 3.81884 34.4422 3.27782C34.5118 2.50998 34.5396 1.73774 34.5254 0.965786H35.7139L35.4643 7.95738L36.728 8.73885L37.9522 7.81404C37.9641 5.6546 38.0552 1.44669 38.0552 1.28485ZM36.0744 9.25213C35.3677 8.70915 34.6014 8.27987 33.7964 7.97588L33.7727 8.00825C34.2718 8.32269 34.7908 8.60013 35.3058 8.87758L36.0546 9.27062L36.0744 9.25213ZM36.53 13.5109H36.5102C36.4241 14.5236 36.4374 15.5444 36.5498 16.5535H36.5894C36.7391 15.5457 36.7283 14.5142 36.5577 13.5109H36.53ZM40.3608 8.45216C39.2382 9.03813 38.1752 9.76863 37.1915 10.6301V10.6625C38.3004 10.0143 39.3687 9.27573 40.3886 8.45216H40.3608ZM40.1746 7.42099L40.1944 7.79554H40.2142C40.4127 6.02106 40.434 4.22569 40.2776 2.44549H40.238C40.0896 4.09883 40.0777 5.76499 40.2024 7.42099H40.1746Z" fill="#3F3F3F"/>
<path d="M3.05439 28.3496L6.98431 28.7334L6.67926 37.7364L0.340692 37.0151L0.253536 31.9286H0.986436C0.947439 32.8564 0.992587 33.7863 1.12113 34.703H1.15678C1.19881 33.7789 1.19881 32.8528 1.15678 31.9286L2.97517 31.8962L3.02666 35.4151L4.04479 35.5354L4.3538 30.5876H0.439732L0 21.7695L6.81792 21.2331L6.73473 27.1797L5.09858 27.1519C5.14936 26.2802 5.10946 25.4045 4.97974 24.5439H4.94804C4.87059 25.4109 4.87059 26.2849 4.94804 27.1519H3.98537L4.03291 23.6977L2.84443 23.7902L3.05439 28.3496ZM2.15511 28.4883H2.1868C2.24076 26.8553 2.17317 25.22 1.98477 23.6006C1.82906 25.2305 1.8865 26.8785 2.15511 28.4883ZM3.3119 29.9217C2.95535 29.9217 2.57901 29.968 2.20662 29.968H2.03626V30.0003C2.44224 30.0611 2.8511 30.092 3.2604 30.0928C3.4981 30.0928 3.73579 30.0928 3.97349 30.0605L4.46472 30.0142C4.70638 30.0142 4.94408 29.968 5.19762 29.968C5.28865 29.9612 5.37995 29.9612 5.47097 29.968V29.9402C5.1329 29.8792 4.7909 29.8529 4.44889 29.8616C4.06065 29.8755 3.68429 29.9079 3.3119 29.9079V29.9217ZM4.07649 36.2567C3.43539 36.0754 2.77903 35.9777 2.11946 35.9654C2.32546 35.9978 2.51562 36.044 2.7335 36.0764C3.1778 36.1677 3.62619 36.2295 4.07649 36.2614V36.2567ZM2.1868 23.0596L2.54731 22.9949C3.45357 22.8218 4.36754 22.7091 5.28478 22.6573C4.99031 22.6157 4.69401 22.594 4.39738 22.5926C4.19534 22.5926 4.00122 22.5926 3.80314 22.625C3.2553 22.7193 2.71479 22.8647 2.1868 23.0596ZM5.19762 31.383C4.76825 32.969 4.68116 34.6543 4.94409 36.2891C4.99559 35.4891 5.02728 34.6707 5.07878 33.8846C5.13028 33.0985 5.14612 32.2199 5.19762 31.3876V31.383ZM5.91467 33.3713H5.94637C6.00885 33.1795 6.03846 32.9753 6.03353 32.7702H5.99786C5.95957 32.9699 5.93179 33.1722 5.91467 33.3759V33.3713Z" fill="#3F3F3F"/>
<path d="M7.73305 33.3436L7.33689 31.1379L8.47387 30.9714V26.0514L14.0518 25.4179L14.5629 32.354L10.9261 32.8811L10.8904 35.6232L12.2334 35.7804L12.1661 33.7135L12.9584 33.7412C12.8957 34.341 12.8666 34.945 12.8712 35.5492C12.963 34.9518 13.0199 34.3477 13.0416 33.7412L14.6262 33.806L14.4559 37.7364L8.46991 37.5653V33.2372L7.73305 33.3436ZM7.76475 31.9887C8.27579 31.9887 8.80268 31.9425 9.32957 31.8777C9.61877 31.8315 9.89213 31.7251 10.1813 31.6465C10.7914 31.5078 11.4371 31.4616 12.0512 31.2766C11.457 31.3876 10.8073 31.3876 10.1972 31.4939C9.89212 31.554 9.58311 31.6789 9.27807 31.739C8.78683 31.8315 8.25995 31.8962 7.76475 31.9887ZM10.0625 32.6499C9.8871 34.0645 9.8129 35.4937 9.84062 36.9226C10.041 35.5112 10.1154 34.0793 10.0625 32.6499ZM9.99117 28.5206C9.99117 29.2143 9.95947 29.9079 9.99117 30.583C10.0229 29.8616 10.1417 29.1356 10.1417 28.4097C10.1417 27.8085 10.0229 27.1473 10.0585 26.56C9.97885 27.2092 9.95629 27.8661 9.99117 28.5206ZM10.6567 36.2429C10.9926 36.3677 11.3422 36.4347 11.6947 36.4417C12.0107 36.476 12.328 36.4915 12.6454 36.4879C12.273 36.4602 11.9125 36.3492 11.5402 36.3353C11.2438 36.3386 10.9479 36.3076 10.6567 36.2429ZM10.9103 30.8789L12.0354 30.6154L11.865 27.8085L10.9301 28.0259L10.9103 30.8789ZM12.6098 31.3413C12.6296 30.6339 12.6811 29.9217 12.6454 29.2281C12.6098 28.5345 12.5107 27.9796 12.4394 27.3461C12.4197 28.6854 12.4767 30.0248 12.6098 31.3552V31.3413Z" fill="#3F3F3F"/>
<path d="M19.5307 37.3064V28.3496L17.8668 28.2709L18.1045 37.9538L16.3495 38C16.3852 36.8301 16.3694 35.6417 16.3179 34.4672C16.1824 35.6382 16.1135 36.8184 16.1118 38H15.6563L15.3314 25.2653L17.7797 25.2191L17.8153 26.4537L21.9948 26.2086V37.3064H19.5307ZM16.1633 27.975C16.1268 29.9362 16.1837 31.8983 16.3337 33.8522C16.4381 31.8867 16.381 29.914 16.1633 27.9611V27.975ZM19.5149 27.5126C18.8397 27.2618 18.1256 27.1876 17.4231 27.2953C18.1232 27.3275 18.8213 27.4016 19.5149 27.5172V27.5126ZM20.3072 32.5991C20.3824 31.0328 20.3824 29.4627 20.3072 27.8964C20.1303 29.4543 20.133 31.0328 20.3151 32.5898L20.3072 32.5991ZM20.2874 33.3852C20.1739 34.3463 20.1632 35.3202 20.2557 36.2845C20.3726 35.3207 20.3859 34.3436 20.2953 33.3759L20.2874 33.3852Z" fill="#3F3F3F"/>
<path d="M26.0951 28.3496L30.021 28.7334L29.716 37.7364L23.3774 37.0151L23.2903 31.9286H24.0232C23.9842 32.8564 24.0293 33.7863 24.1579 34.703H24.1935C24.2355 33.7789 24.2355 32.8528 24.1935 31.9286L26.0119 31.8962L26.0634 35.4151L27.0815 35.5354L27.3905 30.5876H23.4804L23.0367 21.7695L29.8547 21.2331L29.7715 27.1797L28.1512 27.1334C28.2 26.2617 28.1601 25.3862 28.0323 24.5254H27.9967C27.9212 25.3925 27.9212 26.2663 27.9967 27.1334H27.03L27.0776 23.6792L25.8891 23.7717L26.0951 28.3496ZM25.1918 28.4883H25.2275C25.2803 26.8552 25.2113 25.2198 25.0215 23.6006C24.8658 25.2305 24.9232 26.8785 25.1918 28.4883ZM26.3486 29.9217C25.9921 29.9217 25.6157 29.968 25.2433 29.968H25.073V30.0003C25.479 30.0611 25.8878 30.092 26.2971 30.0928C26.5348 30.0928 26.7725 30.0928 27.0102 30.0605L27.5054 30.0142C27.7431 30.0142 27.9808 29.968 28.2344 29.968C28.3254 29.9611 28.4167 29.9611 28.5077 29.968V29.9402C28.1696 29.879 27.8276 29.8527 27.4856 29.8616C27.0974 29.8755 26.721 29.9079 26.3486 29.9079V29.9217ZM27.1132 36.2567C26.4734 36.0757 25.8184 35.978 25.1601 35.9654L25.7702 36.0764C26.2145 36.1677 26.6629 36.2295 27.1132 36.2614V36.2567ZM25.2275 23.0596L25.584 22.9949C26.4903 22.822 27.4043 22.7093 28.3215 22.6573C28.0283 22.6158 27.7334 22.5942 27.4381 22.5926C27.2321 22.5926 27.0419 22.5926 26.8399 22.625C26.2932 22.7187 25.754 22.864 25.2275 23.0596ZM28.2344 31.383C27.805 32.969 27.7179 34.6543 27.9808 36.2891C28.0323 35.4891 28.068 34.6707 28.1155 33.8846C28.163 33.0985 28.1868 32.2199 28.2344 31.3876V31.383ZM28.9514 33.3713H28.9831C29.0456 33.1795 29.0752 32.9753 29.0703 32.7702H29.0346C29.0029 32.9875 28.9673 33.1725 28.9435 33.3759L28.9514 33.3713Z" fill="#3F3F3F"/>
<path d="M30.7698 33.3436L30.3736 31.1379L31.5146 30.9714V26.0514L37.0885 25.4179L37.5996 32.354L33.9628 32.8811L33.9272 35.6232L35.2702 35.7804L35.2028 33.7135L35.9951 33.7412C35.9324 34.341 35.9033 34.945 35.908 35.5492C35.9997 34.9518 36.0567 34.3477 36.0783 33.7412L37.663 33.806L37.4926 37.7364L31.5106 37.5653V33.2372L30.7698 33.3436ZM30.8015 31.9887C31.3125 31.9887 31.8394 31.9425 32.3663 31.8777C32.6555 31.8315 32.9288 31.7251 33.218 31.6465C33.8281 31.5078 34.4739 31.4616 35.0879 31.2766C34.4937 31.3876 33.8479 31.3876 33.2339 31.4939C32.9288 31.554 32.6238 31.6789 32.3148 31.739C31.8236 31.8315 31.2967 31.8962 30.8015 31.9887ZM33.0992 32.6499C32.9238 34.0645 32.8496 35.4937 32.8773 36.9226C33.0777 35.5112 33.1521 34.0793 33.0992 32.6499ZM33.0319 28.5206C33.0319 29.2143 32.9962 29.9079 33.0319 30.583C33.0635 29.8616 33.1864 29.1356 33.1864 28.4097C33.1864 27.8085 33.0635 27.1473 33.0992 26.56C33.0175 27.209 32.995 27.8662 33.0319 28.5206ZM33.6934 36.2429C34.0293 36.3677 34.379 36.4347 34.7314 36.4417C35.0474 36.4759 35.3648 36.4914 35.6822 36.4879C35.3098 36.4602 34.9532 36.3492 34.5769 36.3353C34.2818 36.3381 33.9873 36.3071 33.6974 36.2429H33.6934ZM33.947 30.8789L35.0721 30.6154L34.9017 27.8085L33.9668 28.0259L33.947 30.8789ZM35.6505 31.3413C35.6505 30.6339 35.7178 29.9217 35.6822 29.2281C35.6465 28.5345 35.5475 27.9796 35.4801 27.3461C35.4585 28.6855 35.5154 30.025 35.6505 31.3552V31.3413Z" fill="#3F3F3F"/>
<path d="M38.6415 25.0017L38.0274 22.1209L40.444 21.6909L41.0541 24.5717L39.7785 24.8029C39.6869 24.3603 39.554 23.9308 39.3823 23.522C39.4695 23.9567 39.5883 24.3867 39.7072 24.8168L38.6415 25.0017ZM38.5543 26.6063L41.2086 26.5739L41.1413 37.3526L38.6732 37.385L38.5543 26.6063ZM39.5764 34.8094C39.5764 34.8695 39.5764 34.962 39.5764 35.0221V34.7909C39.5764 33.8198 39.5764 32.8488 39.5764 31.8777C39.5249 30.6755 39.4219 29.4732 39.4219 28.271C39.2872 30.451 39.339 32.6413 39.5764 34.8094ZM40.2063 36.2891C40.2864 34.968 40.2572 33.6409 40.1192 32.3263C40.0552 33.6478 40.0843 34.9732 40.2063 36.2891Z" fill="#3F3F3F"/>
</svg>
