<svg xmlns="http://www.w3.org/2000/svg" viewBox="0 0 201.82 154.61"><defs><style>.cls-1{fill:#fff;}</style></defs><g id="Layer_2" data-name="Layer 2"><g id="Layer_1-2" data-name="Layer 1"><path class="cls-1" d="M18.32,32.12l23.32,1.71L39.82,73.74,2.17,70.53,1.67,48,6,47.91a51.31,51.31,0,0,0,.81,12.23H7A99.78,99.78,0,0,0,7,47.91l10.8-.14.3,15.58,6.06.55L26,42,2.78,42,.15,2.94,40.63.55l-.51,26.38-9.69-.14a42.1,42.1,0,0,0-.7-11.55h-.2a48.38,48.38,0,0,0,.1,11.55H23.87l.31-15.31-7.07.41ZM13,32.74h.2A108.65,108.65,0,0,0,12,11.07h-.1A63.17,63.17,0,0,0,13,32.74Zm6.87,6.35c-2.12.07-4.34.21-6.56.21h-1l-.1.13a63.1,63.1,0,0,0,7.26.41c1.42,0,2.83-.06,4.24-.13l2.93-.21c1.41-.07,2.82-.2,4.34-.2a12.39,12.39,0,0,1,1.61.07v-.14a41.79,41.79,0,0,0-6-.34Q23.17,38.89,19.84,39.09Zm4.54,28.09a59.41,59.41,0,0,0-11.61-1.3V66c1.21.14,2.42.34,3.63.48a74.25,74.25,0,0,0,8,.82ZM13.17,8.68v.07l2.12-.28A162.42,162.42,0,0,1,31.54,7V6.9c-2-.2-3.73-.27-5.24-.27-1.22,0-2.43.07-3.54.14A67.63,67.63,0,0,0,13.17,8.68ZM31,45.59l-.1-.07a39.35,39.35,0,0,0-1.52,21.73l.11-.07c.3-3.55.5-7.17.8-10.66S30.74,49.21,31,45.59Zm4.24,8.81.2.07A6.14,6.14,0,0,0,36,51.8h-.21A23.81,23.81,0,0,0,35.28,54.4Z"/><path class="cls-1" d="M54.86,12.71l-7.07-.2L48.2,1.57,81.81,3l-.3,5.6c-1.92-.14-4-.27-6.46-.27-3.34,0-6.77.2-10.1.41-1.21.07-2.32.13-3.53.13V9c1.82.07,3.73.14,6,.14,1.91,0,3.93,0,5.85-.07s3.94-.07,6-.07h2.33l-.21,4.24-10.19-.21.5,48.05,6.87.07-.41,10.25-30.28.27.41-11,7.16.14ZM50.42,65.54v.14c1.31.07,2.72.13,4,.13a64.67,64.67,0,0,0,8.17-.54v-.14C58.59,65.2,54.46,65.34,50.42,65.54ZM62.13,25.08a43.92,43.92,0,0,0,.1,5.13c0,2.66.1,5.4-.1,8l.2.07c1.21-6.42,1.21-12.91,1.11-19.27,0-2.6,0-5.19.1-7.79l-.2-.07A97,97,0,0,0,62.13,25.08Zm4.34,39.57c.1.48.3,1.16.4,1.58H67s-.1-1.23-.2-1.65c-.71-4.23-.3-8.61.1-12.84.1-1.37.2-2.67.3-4a84.26,84.26,0,0,0-.91-18.24h-.2l.1,2.25c0,5.26.1,10.66-.2,16.06l-.1,1.3C65.46,54.2,65,59.53,66.47,64.65Z"/><path class="cls-1" d="M121.68,69,85.85,71.9,87.06,4.17l10.29.07a104.19,104.19,0,0,0,1.92,15.24h.2c.1-5.06-.3-10.19-.7-15.17h4.44l-.91,55.22,18.07-2.26.5,4.44c-1.61.07-3.23.21-4.74.41l-.71.07-4.84.62c-3,.34-6.06.75-9.09,1.09l.1.14a98.23,98.23,0,0,0,13.33-1c.9-.13,1.71-.27,2.62-.34,1.11-.2,2.22-.41,3.33-.55ZM95.74,20.23c-.2-1.57-.41-3.21-.51-4.78,0,0-.1-.82-.1-1h-.2V16c-.1,3.76-.1,8.68.2,13.67a24,24,0,0,1,.2,2.67,85.87,85.87,0,0,1,.51,12.57H96C97.35,36.7,96.54,28.29,95.74,20.23Z"/><path class="cls-1" d="M163.57,69,127.73,71.9l1.21-67.73,10.3.07a104.19,104.19,0,0,0,1.92,15.24h.2a149.9,149.9,0,0,0-.71-15.17h4.44l-.9,55.22,18.06-2.26.51,4.44c-1.62.07-3.23.21-4.75.41l-.7.07-4.85.62c-3,.34-6.05.75-9.08,1.09l.1.14a97.93,97.93,0,0,0,13.32-1c.91-.13,1.72-.27,2.63-.34,1.11-.2,2.22-.41,3.33-.55Zm-25.95-48.8c-.2-1.57-.4-3.21-.5-4.78,0,0-.1-.82-.1-1h-.2V16c-.1,3.76-.1,8.68.2,13.67a24,24,0,0,1,.2,2.67,87.28,87.28,0,0,1,.51,12.57h.2C139.24,36.7,138.43,28.29,137.62,20.23Z"/><path class="cls-1" d="M185.57,1.23h16.25c0,.55-.61,23.51-.81,30.55l-.1,2.67-14.13,7.1.4,26-4.34.07c1-8,1.42-16.4-1.11-24.47h-.1a143.61,143.61,0,0,1,.51,14.77c-.1,3.21-.1,6.49.1,9.7l-11.31.07-.4-27.27L156.2,34.65,157.81,0l9.29.14c-.31,2.46-.51,4.85-.71,7.17-.1,1.1-.2,2.12-.3,3.21l-.1,1.1c-.41,4.65-.81,9.5-.1,14.21h.2a69,69,0,0,1,.91-9.22c.3-2.19.7-4.44.8-6.7A75.29,75.29,0,0,0,168.21.2L174,.27l-1.21,29.19,6.16,3.28,6-3.9C185.06,19.48,185.57,1.91,185.57,1.23ZM176,34.51a45.86,45.86,0,0,0-11.1-5.33l-.1.14c2.42,1.3,4.94,2.46,7.47,3.62l3.63,1.64Zm2.22,17.77h-.1A56.33,56.33,0,0,0,178.3,65h.2A35,35,0,0,0,178.2,52.28Zm18.67-21.12-.1-.06a79.6,79.6,0,0,0-15.44,9.09l.1.13A127.37,127.37,0,0,0,196.87,31.16Zm-.91-4.3.11,1.57h.1c1.21-7.24.8-14.42.3-22.35h-.2C195.26,13,195.66,20,196,26.86Z"/><path class="cls-1" d="M14.92,114.23l19.14,1.61-1.49,37.61-30.91-3-.42-21.25,3.57-.06a55.28,55.28,0,0,0,.66,11.53h.16a105.56,105.56,0,0,0,0-11.53L14.5,129l.25,14.68,5,.52,1.49-20.67-19.06.06L0,86.74l33.23-2.25-.41,24.85-8-.13a45.94,45.94,0,0,0-.58-10.88h-.16a52.61,52.61,0,0,0,.08,10.88H19.47l.25-14.42-5.8.38Zm-4.4.58h.17a117.86,117.86,0,0,0-1-20.41H9.61A68.36,68.36,0,0,0,10.52,114.81Zm5.64,6c-1.74.07-3.56.2-5.39.2H9.94l-.08.12a46,46,0,0,0,6,.39c1.16,0,2.32-.06,3.48-.13l2.4-.19c1.16-.07,2.32-.19,3.57-.19a9.72,9.72,0,0,1,1.32.06v-.13a29.45,29.45,0,0,0-5-.32C19.81,120.61,18,120.67,16.16,120.8Zm3.73,26.47A42.61,42.61,0,0,0,10.36,146v.07c1,.13,2,.32,3,.45a52.18,52.18,0,0,0,6.55.77Zm-9.2-55.12v.06L12.43,92a114.25,114.25,0,0,1,13.34-1.42v-.07a37.15,37.15,0,0,0-4.31-.25c-1,0-2,.06-2.9.13A48.81,48.81,0,0,0,10.69,92.15Zm14.67,34.77-.08-.06A42.12,42.12,0,0,0,24,147.33l.09-.06c.24-3.35.41-6.76.66-10.05S25.11,130.33,25.36,126.92Zm3.48,8.31.16.06a6.29,6.29,0,0,0,.42-2.51h-.17C29.09,133.62,28.92,134.39,28.84,135.23Z"/><path class="cls-1" d="M37.7,135.1l-1.9-9.21,5.55-.71V104.64L68.53,102,71,130.91,53.28,133.1l-.16,11.46,6.55.65-.34-8.63,3.9.13a57.6,57.6,0,0,0-.42,7.53,56.67,56.67,0,0,0,.83-7.53l7.71.26-.83,16.42-29.17-.71v-18Zm.17-5.67c2.49-.06,5.06-.19,7.62-.45,1.41-.19,2.74-.64,4.15-1,3-.58,6.13-.78,9.11-1.55-2.9.45-6,.45-9,.9-1.49.26-3,.77-4.47,1C42.84,128.79,40.27,129.05,37.87,129.43Zm11.19,2.77c-.67,5.86-1.41,12.17-1.08,17.84A86,86,0,0,0,49.06,132.2Zm-.33-17.26c0,2.9-.17,5.73.08,8.63.16-3,.74-6,.74-9.08,0-2.51-.58-5.28-.41-7.72C48.48,109.47,48.81,112.24,48.73,114.94ZM52,147.2a18.09,18.09,0,0,0,5,.84c1.49.07,3.07.26,4.64.19-1.82-.12-3.56-.58-5.38-.64A22,22,0,0,1,52,147.2Zm1.24-22.4,5.47-1.1L57.84,112l-4.56.9Zm8.29,2c.08-3,.33-5.92.16-8.82-.24-2.64-.66-5.22-1-7.86A123.11,123.11,0,0,0,61.49,126.79Z"/><path class="cls-1" d="M95.22,151.58V114.23l-8.13-.32,1.16,40.44-8.53.19c.16-4.89.08-9.85-.17-14.74a110.6,110.6,0,0,0-1,14.74l-2.24.07-1.57-53.19,11.93-.19.17,5.15,20.38-1v46.23Zm-16.41-39a220.57,220.57,0,0,0,.83,24.54A128.37,128.37,0,0,0,78.81,112.62Zm16.32-1.86c-3.06-1.29-6.88-1.1-10.19-.9C88.34,110.24,92,110.05,95.13,110.76ZM99,131.94a171.63,171.63,0,0,0,.08-19.64A74.22,74.22,0,0,0,99,131.94ZM99,135.23a49.5,49.5,0,0,0-.17,12.1A49.45,49.45,0,0,0,99,135.23Z"/><path class="cls-1" d="M127.2,114.23l19.15,1.61-1.5,37.61-30.91-3-.41-21.25,3.56-.06a56,56,0,0,0,.66,11.53h.17a105.56,105.56,0,0,0,0-11.53l8.87-.13.25,14.68,5,.52,1.49-20.67-19.06.06-2.15-36.83,33.23-2.25-.42,24.85-7.95-.13a45.94,45.94,0,0,0-.58-10.88h-.17a53.31,53.31,0,0,0,.08,10.88h-4.72L132,94.79l-5.8.38Zm-4.39.58H123a118.84,118.84,0,0,0-1-20.41h-.08A67.71,67.71,0,0,0,122.81,114.81Zm5.64,6c-1.74.07-3.57.2-5.39.2h-.83l-.08.12a45.88,45.88,0,0,0,6,.39c1.16,0,2.32-.06,3.48-.13l2.41-.19c1.16-.07,2.32-.19,3.56-.19a9.87,9.87,0,0,1,1.33.06v-.13a29.45,29.45,0,0,0-5-.32C132.09,120.61,130.27,120.67,128.45,120.8Zm3.72,26.47a42.46,42.46,0,0,0-9.53-1.23v.07c1,.13,2,.32,3,.45a52.24,52.24,0,0,0,6.54.77ZM123,92.15v.06l1.74-.25a114,114,0,0,1,13.34-1.42v-.07a37.39,37.39,0,0,0-4.31-.25c-1,0-2,.06-2.9.13A48.55,48.55,0,0,0,123,92.15Zm14.66,34.77-.08-.06a42.24,42.24,0,0,0-1.24,20.47l.08-.06c.25-3.35.42-6.76.66-10.05S137.4,130.33,137.64,126.92Zm3.48,8.31.17.06a6.47,6.47,0,0,0,.42-2.51h-.17C141.37,133.62,141.21,134.39,141.12,135.23Z"/><path class="cls-1" d="M150,135.1l-1.91-9.21,5.56-.71V104.64L180.82,102l2.48,28.91-17.73,2.19-.17,11.46,6.55.65-.33-8.63,3.89.13a59.39,59.39,0,0,0-.41,7.53,58.38,58.38,0,0,0,.83-7.53l7.71.26-.83,16.42-29.17-.71v-18Zm.17-5.67c2.48-.06,5.05-.19,7.62-.45,1.41-.19,2.74-.64,4.14-1,3-.58,6.14-.78,9.12-1.55-2.9.45-6,.45-9,.9-1.49.26-3,.77-4.48,1C155.13,128.79,152.56,129.05,150.16,129.43Zm11.18,2.77c-.66,5.86-1.4,12.17-1.07,17.84A85.32,85.32,0,0,0,161.34,132.2ZM161,114.94c0,2.9-.16,5.73.09,8.63.16-3,.74-6,.74-9.08,0-2.51-.58-5.28-.41-7.72C160.76,109.47,161.1,112.24,161,114.94Zm3.23,32.26a18.23,18.23,0,0,0,5.06.84c1.49.07,3.07.26,4.64.19-1.82-.12-3.56-.58-5.39-.64A22.08,22.08,0,0,1,164.24,147.2Zm1.25-22.4,5.47-1.1L170.13,112l-4.56.9Zm8.28,2c.09-3,.34-5.92.17-8.82-.25-2.64-.66-5.22-1-7.86A123.11,123.11,0,0,0,173.77,126.79Z"/><path class="cls-1" d="M188.36,100.26l-3-12,11.76-1.8,3,12-6.22,1a26.19,26.19,0,0,0-2-5.34c.42,1.8,1,3.61,1.58,5.41Zm-.42,6.7,12.93-.13-.33,45-12,.13Zm5,34.26c0,.25.08.64.08.9v-1c0-4.06,0-8.11-.08-12.17-.25-5-.75-10-.75-15.07C191.26,123,192,132.14,192.92,141.22ZM196,147.4a84.68,84.68,0,0,0-.41-16.55A100.62,100.62,0,0,0,196,147.4Z"/></g></g></svg>